<svg xmlns="http://www.w3.org/2000/svg" xmlns:xlink="http://www.w3.org/1999/xlink" id="Capa_1" x="0" y="0" version="1.1" viewBox="0 0 490.7 490.7" xml:space="preserve" style="enable-background:new 0 0 490.7 490.7"><style type="text/css">.st0{fill:#60c}</style><path d="M466.2,237.8L231.6,3.1c-2-2-4.7-3.1-7.6-3.1H32c-5.9,0-10.7,4.8-10.7,10.6c0,2.8,1.1,5.6,3.1,7.6l227.1,227.1	L24.4,472.4c-4.2,4.2-4.2,10.9,0,15.1c2,2,4.7,3.1,7.6,3.1h192c2.8,0,5.5-1.1,7.6-3.1l234.7-234.7	C470.4,248.7,470.4,242,466.2,237.8C466.2,237.8,466.2,237.8,466.2,237.8z" class="st0"/></svg>