<svg xmlns="http://www.w3.org/2000/svg" xmlns:xlink="http://www.w3.org/1999/xlink" id="Layer_1" x="0" y="0" version="1.1" viewBox="0 0 400 225" xml:space="preserve" style="enable-background:new 0 0 400 225"><style type="text/css">.st0{fill:url(#Combined-Shape-Copy_1_)}</style><linearGradient id="Combined-Shape-Copy_1_" x1="103.779" x2="104.76" y1="217.009" y2="216.038" gradientTransform="matrix(400.2188 0 0 -210 -41519.3672 45590.5)" gradientUnits="userSpaceOnUse"><stop offset="0" style="stop-color:#f9aa0f"/><stop offset="1" style="stop-color:#6303e4"/></linearGradient><path id="Combined-Shape-Copy" d="M235.6,46.8l-32.4,34.1l-67.5-70.8h61.9h2.9L235.6,46.8z M335.6,10.1h64.9L300.6,115	l99.9,104.9h-64.9L235.7,115L335.6,10.1z M135.7,219.9l67.5-70.8l32.4,34.1l-35,36.8h-2.9H135.7z M70.8,219.9H0.5v-48.1h116.1	L70.8,219.9z M147.8,139H0.5V91h147.3l22.9,24L147.8,139z M116.6,58.1H0.5V10.1h70.3L116.6,58.1z" class="st0"/></svg>