<svg xmlns="http://www.w3.org/2000/svg" xmlns:xlink="http://www.w3.org/1999/xlink" width="32" height="32" class="icon" p-id="11426" t="1587525870650" version="1.1" viewBox="0 0 1024 1024"><defs><style type="text/css"/></defs><path fill="#fff" d="M892.8 448.2H576.3V131.6c0-35.2-28.8-63.9-63.9-63.9-35.2 0-63.9 28.8-63.9 63.9v316.6H131.8c-35.2 0-63.9 28.8-63.9 63.9 0 35.2 28.8 63.9 63.9 63.9h316.6v316.6c0 35.2 28.8 63.9 63.9 63.9 35.2 0 63.9-28.8 63.9-63.9V576h316.6c35.2 0 63.9-28.8 63.9-63.9 0.1-35.1-28.7-63.9-63.9-63.9z" p-id="11427"/></svg>