<svg xmlns="http://www.w3.org/2000/svg" xmlns:xlink="http://www.w3.org/1999/xlink" width="16" height="16" class="icon" p-id="5278" t="1591030117471" version="1.1" viewBox="0 0 1024 1024"><defs><style type="text/css"/></defs><path d="M512 800c159.056 0 288-128.944 288-288s-128.944-288-288-288-288 128.944-288 288 128.944 288 288 288z m0 48c-185.568 0-336-150.432-336-336s150.432-336 336-336 336 150.432 336 336-150.432 336-336 336z m16-320V368a16 16 0 0 1 16-16h16a16 16 0 0 1 16 16v192a16 16 0 0 1-16 16H384a16 16 0 0 1-16-16v-16a16 16 0 0 1 16-16h144z" p-id="5279"/></svg>